HIERARCHY
ROOT Hips
{
    OFFSET 0.000000 0.000000 0.000000
    CHANNELS 6 Xposition Yposition Zposition Zrotation Xrotation Yrotation
    JOINT Spine
    {
        OFFSET 0.000002 7.164412 0.000002
        CHANNELS 3 Zrotation Xrotation Yrotation
        JOINT Spine1
        {
            OFFSET -0.000001 20.126801 -0.000002
            CHANNELS 3 Zrotation Xrotation Yrotation
            JOINT Neck
            {
                OFFSET 0.000000 21.094069 0.000000
                CHANNELS 3 Zrotation Xrotation Yrotation
                JOINT Head
                {
                    OFFSET -0.000001 12.838277 1.776080
                    CHANNELS 3 Zrotation Xrotation Yrotation
                    End Site
                    {
                        OFFSET 0.000000 17.760757 0.000000
                    }
                }
            }
            JOINT LeftShoulder
            {
                OFFSET 3.550527 15.465700 -0.908803
                CHANNELS 3 Zrotation Xrotation Yrotation
                JOINT LeftArm
                {
                    OFFSET 12.513296 -0.000006 -0.000002
                    CHANNELS 3 Zrotation Xrotation Yrotation
                    JOINT LeftForeArm
                    {
                        OFFSET 24.225996 -0.000003 0.000001
                        CHANNELS 3 Zrotation Xrotation Yrotation
                        JOINT LeftHand
                        {
                            OFFSET 20.711399 -0.000005 -0.000004
                            CHANNELS 3 Zrotation Xrotation Yrotation
                            JOINT LeftHandThumb1
                            {
                                OFFSET 2.121969 -2.411331 3.375859
                                CHANNELS 3 Zrotation Xrotation Yrotation
                                JOINT LeftHandThumb2
                                {
                                    OFFSET 2.803208 0.000003 0.000001
                                    CHANNELS 3 Zrotation Xrotation Yrotation
                                    JOINT LeftHandThumb3
                                    {
                                        OFFSET 2.395929 0.000004 -0.000003
                                        CHANNELS 3 Zrotation Xrotation Yrotation
                                        End Site
                                        {
                                            OFFSET 2.127676 0.000000 0.000000
                                        }
                                    }
                                }
                            }
                            JOINT LeftHandIndex1
                            {
                                OFFSET 8.680775 0.000005 3.375860
                                CHANNELS 3 Zrotation Xrotation Yrotation
                                JOINT LeftHandIndex2
                                {
                                    OFFSET 4.218178 -0.000000 -0.000000
                                    CHANNELS 3 Zrotation Xrotation Yrotation
                                    JOINT LeftHandIndex3
                                    {
                                        OFFSET 2.109086 -0.000004 0.000002
                                        CHANNELS 3 Zrotation Xrotation Yrotation
                                        End Site
                                        {
                                            OFFSET 1.872952 0.000000 0.000000
                                        }
                                    }
                                }
                            }
                            JOINT LeftHandMiddle1
                            {
                                OFFSET 8.680778 -0.000002 1.118860
                                CHANNELS 3 Zrotation Xrotation Yrotation
                                JOINT LeftHandMiddle2
                                {
                                    OFFSET 4.640003 -0.000004 -0.000001
                                    CHANNELS 3 Zrotation Xrotation Yrotation
                                    JOINT LeftHandMiddle3
                                    {
                                        OFFSET 2.530911 0.000002 -0.000001
                                        CHANNELS 3 Zrotation Xrotation Yrotation
                                        End Site
                                        {
                                            OFFSET 2.247544 0.000000 0.000000
                                        }
                                    }
                                }
                            }
                            JOINT LeftHandRing1
                            {
                                OFFSET 8.198517 0.000004 -1.118860
                                CHANNELS 3 Zrotation Xrotation Yrotation
                                JOINT LeftHandRing2
                                {
                                    OFFSET 4.218183 -0.000002 -0.000002
                                    CHANNELS 3 Zrotation Xrotation Yrotation
                                    JOINT LeftHandRing3
                                    {
                                        OFFSET 2.109094 0.000005 -0.000000
                                        CHANNELS 3 Zrotation Xrotation Yrotation
                                        End Site
                                        {
                                            OFFSET 1.872952 0.000000 0.000000
                                        }
                                    }
                                }
                            }
                            JOINT LeftHandPinky1
                            {
                                OFFSET 7.716254 0.000002 -3.375863
                                CHANNELS 3 Zrotation Xrotation Yrotation
                                JOINT LeftHandPinky2
                                {
                                    OFFSET 3.374536 0.000002 0.000001
                                    CHANNELS 3 Zrotation Xrotation Yrotation
                                    JOINT LeftHandPinky3
                                    {
                                        OFFSET 1.687274 -0.000002 -0.000004
                                        CHANNELS 3 Zrotation Xrotation Yrotation
                                        End Site
                                        {
                                            OFFSET 1.498360 0.000000 0.000000
                                        }
                                    }
                                }
                            }
                        }
                    }
                }
            }
            JOINT RightShoulder
            {
                OFFSET -3.550529 15.465699 -0.908801
                CHANNELS 3 Zrotation Xrotation Yrotation
                JOINT RightArm
                {
                    OFFSET -12.513299 -0.000001 -0.000000
                    CHANNELS 3 Zrotation Xrotation Yrotation
                    JOINT RightForeArm
                    {
                        OFFSET -24.226000 -0.000003 -0.000001
                        CHANNELS 3 Zrotation Xrotation Yrotation
                        JOINT RightHand
                        {
                            OFFSET -20.711397 -0.000003 -0.000002
                            CHANNELS 3 Zrotation Xrotation Yrotation
                            JOINT RightHandThumb1
                            {
                                OFFSET -2.121970 -2.411331 3.375859
                                CHANNELS 3 Zrotation Xrotation Yrotation
                                JOINT RightHandThumb2
                                {
                                    OFFSET -2.803209 -0.000004 0.000004
                                    CHANNELS 3 Zrotation Xrotation Yrotation
                                    JOINT RightHandThumb3
                                    {
                                        OFFSET -2.395928 0.000004 -0.000003
                                        CHANNELS 3 Zrotation Xrotation Yrotation
                                        End Site
                                        {
                                            OFFSET -2.127676 0.000000 0.000000
                                        }
                                    }
                                }
                            }
                            JOINT RightHandIndex1
                            {
                                OFFSET -8.680779 0.000001 3.375859
                                CHANNELS 3 Zrotation Xrotation Yrotation
                                JOINT RightHandIndex2
                                {
                                    OFFSET -4.218179 0.000003 -0.000001
                                    CHANNELS 3 Zrotation Xrotation Yrotation
                                    JOINT RightHandIndex3
                                    {
                                        OFFSET -2.109090 -0.000002 0.000000
                                        CHANNELS 3 Zrotation Xrotation Yrotation
                                        End Site
                                        {
                                            OFFSET -1.872952 0.000000 0.000000
                                        }
                                    }
                                }
                            }
                            JOINT RightHandMiddle1
                            {
                                OFFSET -8.680779 -0.000002 1.118859
                                CHANNELS 3 Zrotation Xrotation Yrotation
                                JOINT RightHandMiddle2
                                {
                                    OFFSET -4.639998 0.000003 -0.000001
                                    CHANNELS 3 Zrotation Xrotation Yrotation
                                    JOINT RightHandMiddle3
                                    {
                                        OFFSET -2.530910 -0.000000 -0.000000
                                        CHANNELS 3 Zrotation Xrotation Yrotation
                                        End Site
                                        {
                                            OFFSET -2.247544 0.000000 0.000000
                                        }
                                    }
                                }
                            }
                            JOINT RightHandRing1
                            {
                                OFFSET -8.198519 -0.000004 -1.118859
                                CHANNELS 3 Zrotation Xrotation Yrotation
                                JOINT RightHandRing2
                                {
                                    OFFSET -4.218180 -0.000005 0.000000
                                    CHANNELS 3 Zrotation Xrotation Yrotation
                                    JOINT RightHandRing3
                                    {
                                        OFFSET -2.109090 0.000002 0.000002
                                        CHANNELS 3 Zrotation Xrotation Yrotation
                                        End Site
                                        {
                                            OFFSET -1.872952 0.000000 0.000000
                                        }
                                    }
                                }
                            }
                            JOINT RightHandPinky1
                            {
                                OFFSET -7.716249 0.000004 -3.375858
                                CHANNELS 3 Zrotation Xrotation Yrotation
                                JOINT RightHandPinky2
                                {
                                    OFFSET -3.374539 0.000003 -0.000000
                                    CHANNELS 3 Zrotation Xrotation Yrotation
                                    JOINT RightHandPinky3
                                    {
                                        OFFSET -1.687270 -0.000004 -0.000001
                                        CHANNELS 3 Zrotation Xrotation Yrotation
                                        End Site
                                        {
                                            OFFSET -1.498360 0.000000 0.000000
                                        }
                                    }
                                }
                            }
                        }
                    }
                }
            }
        }
    }
    JOINT LeftUpLeg
    {
        OFFSET 8.880377 0.000003 0.000001
        CHANNELS 3 Zrotation Xrotation Yrotation
        JOINT LeftLeg
        {
            OFFSET -0.000000 -40.387413 0.000001
            CHANNELS 3 Zrotation Xrotation Yrotation
            JOINT LeftFoot
            {
                OFFSET -0.000000 -36.911304 0.000000
                CHANNELS 3 Zrotation Xrotation Yrotation
                JOINT LeftToeBase
                {
                    OFFSET 0.000003 -5.772240 13.320597
                    CHANNELS 3 Zrotation Xrotation Yrotation
                    End Site
                    {
                        OFFSET 0.000000 0.000000 3.552151
                    }
                }
            }
        }
    }
    JOINT RightUpLeg
    {
        OFFSET -8.880380 -0.000003 -0.000001
        CHANNELS 3 Zrotation Xrotation Yrotation
        JOINT RightLeg
        {
            OFFSET 0.000001 -40.387405 0.000000
            CHANNELS 3 Zrotation Xrotation Yrotation
            JOINT RightFoot
            {
                OFFSET -0.000001 -36.911304 -0.000001
                CHANNELS 3 Zrotation Xrotation Yrotation
                JOINT RightToeBase
                {
                    OFFSET 0.000000 -5.772241 13.320600
                    CHANNELS 3 Zrotation Xrotation Yrotation
                    End Site
                    {
                        OFFSET 0.000000 0.000000 3.552151
                    }
                }
            }
        }
    }
}
MOTION
Frames: 4
Frame Time: 0.013889
106.113777    82.286346    78.706703    -6.744336    1.317154    40.270576    1.606151    -21.196930    4.434386    -1.858312    13.162704    4.448714    4.012089    -6.044260    -7.074747    5.819293    1.082591    -7.659804    0.311818    -1.631343    -2.169458    -19.390614    22.959356    -32.386734    -11.281323    -14.914662    -37.777256    -24.268162    9.540657    3.602705    34.195389    31.857727    -45.676212    -15.034291    -1.346649    23.280725    -0.000000    0.000000    -0.000000    -12.660307    17.589602    -6.249928    -12.059260    0.000002    -0.000007    -12.059255    -0.000004    0.000001    -10.755069    8.844430    -3.393854    -10.625684    0.000006    -0.000005    -10.625687    -0.000002    0.000002    -10.029935    -8.864659    -3.400185    -9.908908    -0.000002    0.000003    -9.908906    0.000004    -0.000005    -9.656475    -17.761047    -6.649157    -9.192135    -0.000001    -0.000004    -9.192127    0.000000    0.000000    -0.638286    1.525069    7.693889    48.422653    20.002218    11.006407    -0.098930    -21.660723    -0.268030    21.920784    -1.277298    -22.283560    -39.636669    26.617615    48.747974    14.757445    -1.227552    -23.286945    -0.000000    0.000000    -0.000000    13.858809    17.508419    6.129793    13.204853    -0.000001    0.000004    13.204833    -0.000003    0.000000    12.255277    8.798162    3.284396    12.108889    -0.000001    0.000004    12.108875    0.000003    -0.000007    11.701049    -8.815938    -0.110937    11.560891    0.000002    -0.000002    11.560884    -0.000002    -0.000003    11.564745    -17.657450    -0.306234    11.012905    0.000004    0.000001    11.012902    -0.000003    0.000000    6.039709    -28.334648    20.290155    -0.000001    3.712214    -0.000007    -15.039426    27.823124    20.378548    0.000002    8.146052    -0.000005    11.036340    1.565108    -22.995716    -0.000000    4.977535    0.000001    3.159444    -9.454067    0.344490    0.000000    -0.831993    -0.000003    
105.786621    82.284111    78.626778    -6.742299    1.081311    40.448456    1.707190    -21.013781    4.751298    -1.998738    13.177283    4.773916    3.736415    -6.169813    -7.607304    5.946470    0.962939    -8.171204    0.103638    -1.772558    -2.067663    -20.659597    21.103605    -31.185369    -10.816285    -14.607268    -37.146713    -23.901518    9.824854    3.473634    34.029034    32.022823    -45.452766    -15.277103    -1.451085    23.274805    -0.000000    0.000000    -0.000000    -12.558497    17.596167    -6.313863    -11.962004    0.000004    -0.000008    -11.962003    -0.000000    0.000002    -10.687993    8.846360    -3.420752    -10.559379    0.000002    -0.000001    -10.559388    -0.000002    0.000001    -9.978491    -8.866035    -3.305819    -9.858070    -0.000001    -0.000003    -9.858074    -0.000002    0.000001    -9.619379    -17.762877    -6.464974    -9.156765    -0.000003    -0.000004    -9.156754    0.000003    0.000002    -0.587262    1.462512    7.849742    47.794861    20.194748    11.756654    -0.066117    -21.975060    -0.176666    21.220711    -1.132598    -22.877541    -39.645073    26.638868    48.669136    14.772381    -1.233975    -23.286621    -0.000000    0.000000    -0.000000    13.942538    17.502457    6.038941    13.284930    -0.000003    0.000007    13.284921    -0.000000    -0.000003    12.263603    8.797882    3.250296    12.117103    -0.000007    -0.000004    12.117116    0.000004    0.000003    11.673035    -8.816822    -0.098766    11.533191    -0.000002    -0.000002    11.533196    -0.000003    0.000000    11.498096    -17.661383    -0.293520    10.949285    -0.000003    0.000000    10.949291    0.000003    -0.000004    6.429538    -28.688328    20.384207    -0.000002    4.205230    -0.000010    -15.249286    28.071871    20.240211    0.000002    8.872070    -0.000002    11.323993    1.548965    -23.278933    -0.000000    4.931981    -0.000002    3.096009    -9.251803    0.436785    -0.000001    -0.801744    -0.000004    
105.358871    82.280228    78.512985    -6.700373    0.761345    40.715889    1.842486    -20.688675    5.202672    -2.208756    13.169791    5.242129    3.328322    -6.394032    -8.292989    6.091599    0.778316    -8.823827    -0.282981    -2.009965    -1.955092    -22.336189    18.447298    -29.720243    -10.145480    -14.105205    -36.289043    -23.148014    10.241266    3.387019    33.779228    32.269089    -45.099003    -15.613775    -1.595816    23.265844    -0.000000    0.000000    -0.000000    -12.685314    17.587980    -6.047019    -12.083142    -0.000002    -0.000000    -12.083146    0.000000    -0.000002    -10.684061    8.846472    -3.307101    -10.555487    -0.000003    -0.000001    -10.555481    -0.000002    0.000002    -9.911306    -8.867838    -3.170311    -9.791661    -0.000002    -0.000001    -9.791660    0.000002    0.000002    -9.484183    -17.769489    -6.173417    -9.027831    0.000001    0.000000    -9.027830    -0.000000    0.000002    -0.541872    1.437221    8.091084    47.046764    20.410549    12.737506    -0.027342    -22.398718    -0.071746    20.200264    -0.871870    -23.747887    -39.596306    26.725073    48.544739    14.816458    -1.252937    -23.285675    -0.000000    0.000000    -0.000000    14.107243    17.490662    5.877795    13.442460    -0.000007    0.000002    13.442457    0.000005    -0.000004    12.301164    8.796645    3.188738    12.154253    -0.000003    0.000002    12.154250    0.000003    -0.000000    11.649724    -8.817551    -0.088486    11.510150    -0.000003    0.000002    11.510156    0.000003    -0.000002    11.410905    -17.666487    -0.292274    10.866039    -0.000001    -0.000002    10.866054    0.000004    0.000001    6.923572    -29.148006    20.525436    -0.000001    4.911880    0.000014    -15.587595    28.318371    19.969053    -0.000000    9.874507    -0.000003    11.685512    1.530791    -23.641516    -0.000000    4.921102    -0.000000    2.963584    -9.060343    0.448830    -0.000000    -0.825222    -0.000002    
105.050980    82.282494    78.427803    -6.654259    0.535122    40.904472    1.941792    -20.435965    5.546063    -2.366660    13.170735    5.599262    3.001709    -6.554384    -8.849797    6.171131    0.657077    -9.352677    -0.592504    -2.161927    -1.848316    -23.615751    16.367950    -28.662760    -9.745983    -13.826787    -35.704651    -22.480225    10.472760    3.360328    33.677593    32.367821    -44.954708    -15.818253    -1.683683    23.259983    -0.000000    0.000000    -0.000000    -12.922868    17.572439    -5.788040    -12.310136    -0.000002    0.000004    -12.310142    0.000000    -0.000001    -10.732276    8.845086    -3.206068    -10.603163    -0.000002    -0.000000    -10.603164    0.000000    -0.000001    -9.868822    -8.868958    -3.084543    -9.749678    -0.000003    -0.000002    -9.749662    0.000002    0.000000    -9.346117    -17.776140    -5.972835    -8.896173    0.000007    0.000004    -8.896192    -0.000010    -0.000006    -0.551876    1.445089    8.253541    46.525681    20.610954    13.517819    0.044696    -22.578720    0.116417    19.498695    -0.540609    -24.404737    -39.562248    26.792307    48.436924    14.845964    -1.265633    -23.285027    -0.000000    0.000000    -0.000000    14.180796    17.485352    5.741459    13.512812    0.000000    0.000002    13.512795    0.000004    -0.000007    12.310047    8.796353    3.130259    12.163031    -0.000001    0.000004    12.163033    0.000004    0.000003    11.627466    -8.818244    -0.086901    11.488136    -0.000003    0.000000    11.488146    0.000003    -0.000002    11.355606    -17.669704    -0.299053    10.813247    0.000001    -0.000004    10.813255    -0.000003    0.000004    7.308682    -29.458672    20.559229    0.000000    5.445735    -0.000000    -15.539249    28.423662    19.307558    -0.000009    10.581027    0.000016    11.918179    1.500933    -23.889982    -0.000000    4.963638    0.000003    2.843691    -8.953966    0.429653    -0.000000    -0.854452    -0.000001    
